<svg xmlns="http://www.w3.org/2000/svg" xmlns:xlink="http://www.w3.org/1999/xlink" width="500" zoomAndPan="magnify" viewBox="0 0 375 374.999991" height="500" preserveAspectRatio="xMidYMid meet" version="1.0"><defs><g/><clipPath id="e81d4fed91"><path d="M 131 148 L 244 148 L 244 229.3125 L 131 229.3125 Z M 131 148 " clip-rule="nonzero"/></clipPath></defs><rect x="-37.5" width="450" fill="#ffffff" y="-37.499999" height="449.999989" fill-opacity="1"/><rect x="-37.5" width="450" fill="#ffffff" y="-37.499999" height="449.999989" fill-opacity="1"/><path fill="#ffde59" d="M 255.953125 135.535156 L 194.683594 81.445312 C 194.195312 81.011719 193.667969 80.625 193.109375 80.285156 C 192.550781 79.949219 191.964844 79.664062 191.351562 79.433594 C 190.738281 79.199219 190.113281 79.023438 189.46875 78.90625 C 188.824219 78.789062 188.175781 78.730469 187.519531 78.730469 C 186.867188 78.730469 186.21875 78.789062 185.574219 78.90625 C 184.929688 79.023438 184.300781 79.199219 183.691406 79.433594 C 183.078125 79.664062 182.492188 79.949219 181.933594 80.285156 C 181.371094 80.625 180.847656 81.011719 180.355469 81.445312 L 158.027344 101.144531 L 158.027344 98.90625 C 158.027344 98.5625 157.996094 98.21875 157.925781 97.878906 C 157.859375 97.542969 157.761719 97.214844 157.628906 96.894531 C 157.496094 96.578125 157.335938 96.273438 157.144531 95.988281 C 156.953125 95.699219 156.734375 95.433594 156.488281 95.191406 C 156.246094 94.945312 155.980469 94.730469 155.695312 94.539062 C 155.40625 94.347656 155.105469 94.183594 154.785156 94.050781 C 154.464844 93.917969 154.136719 93.820312 153.800781 93.753906 C 153.460938 93.6875 153.121094 93.652344 152.773438 93.652344 L 139.71875 93.652344 C 139.375 93.652344 139.035156 93.6875 138.695312 93.753906 C 138.355469 93.820312 138.027344 93.917969 137.710938 94.050781 C 137.390625 94.183594 137.089844 94.347656 136.800781 94.539062 C 136.515625 94.730469 136.25 94.945312 136.003906 95.191406 C 135.761719 95.433594 135.542969 95.699219 135.351562 95.988281 C 135.160156 96.273438 135 96.578125 134.867188 96.894531 C 134.734375 97.214844 134.632812 97.542969 134.566406 97.878906 C 134.5 98.21875 134.464844 98.5625 134.464844 98.90625 L 134.464844 121.976562 L 119.105469 135.535156 C 111.625 142.101562 116.296875 154.476562 126.269531 154.476562 L 126.492188 154.476562 C 126.742188 153.65625 127.050781 152.867188 127.425781 152.097656 C 127.800781 151.328125 128.230469 150.597656 128.722656 149.898438 C 129.214844 149.199219 129.757812 148.542969 130.351562 147.933594 C 130.949219 147.320312 131.589844 146.761719 132.273438 146.25 C 132.957031 145.742188 133.679688 145.289062 134.4375 144.894531 C 135.195312 144.503906 135.980469 144.171875 136.789062 143.902344 C 137.601562 143.632812 138.425781 143.429688 139.269531 143.292969 C 140.113281 143.15625 140.960938 143.089844 141.816406 143.089844 L 145.832031 143.089844 C 145.851562 142.390625 145.898438 141.691406 145.984375 140.996094 C 146.066406 140.304688 146.183594 139.613281 146.335938 138.933594 C 146.484375 138.25 146.667969 137.574219 146.882812 136.910156 C 147.101562 136.246094 147.347656 135.589844 147.625 134.949219 C 147.90625 134.308594 148.214844 133.683594 148.554688 133.070312 C 148.894531 132.460938 149.261719 131.867188 149.660156 131.289062 C 150.054688 130.714844 150.480469 130.160156 150.929688 129.625 C 151.382812 129.089844 151.855469 128.578125 152.355469 128.089844 C 152.855469 127.601562 153.378906 127.136719 153.925781 126.699219 C 154.46875 126.261719 155.035156 125.851562 155.621094 125.46875 C 156.207031 125.085938 156.808594 124.730469 157.425781 124.40625 C 158.046875 124.082031 158.679688 123.785156 159.328125 123.523438 C 159.972656 123.257812 160.632812 123.027344 161.304688 122.828125 C 161.972656 122.628906 162.652344 122.460938 163.339844 122.324219 C 164.023438 122.191406 164.714844 122.089844 165.410156 122.023438 C 166.109375 121.957031 166.804688 121.921875 167.503906 121.921875 L 207.5625 121.921875 C 208.261719 121.921875 208.960938 121.957031 209.65625 122.023438 C 210.351562 122.089844 211.042969 122.191406 211.730469 122.324219 C 212.414062 122.460938 213.09375 122.628906 213.765625 122.828125 C 214.433594 123.027344 215.09375 123.257812 215.742188 123.523438 C 216.390625 123.785156 217.023438 124.082031 217.640625 124.40625 C 218.261719 124.730469 218.863281 125.085938 219.449219 125.46875 C 220.03125 125.851562 220.597656 126.261719 221.140625 126.699219 C 221.6875 127.136719 222.210938 127.601562 222.710938 128.089844 C 223.210938 128.578125 223.6875 129.089844 224.136719 129.625 C 224.589844 130.160156 225.011719 130.714844 225.410156 131.289062 C 225.804688 131.867188 226.175781 132.460938 226.515625 133.070312 C 226.851562 133.683594 227.164062 134.308594 227.441406 134.949219 C 227.71875 135.589844 227.96875 136.246094 228.183594 136.910156 C 228.398438 137.574219 228.582031 138.25 228.734375 138.933594 C 228.882812 139.613281 229 140.304688 229.082031 140.996094 C 229.167969 141.691406 229.21875 142.390625 229.234375 143.089844 L 233.285156 143.089844 C 234.140625 143.089844 234.988281 143.15625 235.828125 143.292969 C 236.671875 143.429688 237.496094 143.632812 238.308594 143.898438 C 239.117188 144.167969 239.902344 144.496094 240.660156 144.890625 C 241.414062 145.285156 242.136719 145.734375 242.824219 146.242188 C 243.507812 146.75 244.148438 147.3125 244.742188 147.921875 C 245.339844 148.53125 245.882812 149.1875 246.375 149.882812 C 246.867188 150.582031 247.296875 151.3125 247.671875 152.082031 C 248.046875 152.847656 248.359375 153.640625 248.605469 154.457031 L 248.796875 154.457031 C 258.746094 154.476562 263.414062 142.136719 255.953125 135.535156 Z M 255.953125 135.535156 " fill-opacity="1" fill-rule="nonzero"/><path fill="#ffde59" d="M 164.015625 159.113281 L 164.015625 181.636719 C 164.015625 181.957031 164.046875 182.273438 164.109375 182.589844 C 164.171875 182.902344 164.265625 183.207031 164.390625 183.503906 C 164.511719 183.800781 164.660156 184.082031 164.839844 184.347656 C 165.015625 184.613281 165.21875 184.863281 165.445312 185.089844 C 165.671875 185.316406 165.917969 185.519531 166.1875 185.695312 C 166.453125 185.875 166.734375 186.023438 167.027344 186.148438 C 167.324219 186.269531 167.628906 186.363281 167.945312 186.425781 C 168.257812 186.488281 168.578125 186.523438 168.898438 186.523438 L 206.132812 186.523438 C 206.453125 186.523438 206.769531 186.488281 207.085938 186.425781 C 207.398438 186.363281 207.703125 186.269531 208 186.148438 C 208.296875 186.023438 208.578125 185.875 208.84375 185.695312 C 209.109375 185.519531 209.359375 185.316406 209.585938 185.089844 C 209.8125 184.863281 210.011719 184.617188 210.191406 184.347656 C 210.371094 184.082031 210.519531 183.800781 210.644531 183.503906 C 210.765625 183.207031 210.859375 182.902344 210.921875 182.589844 C 210.984375 182.273438 211.015625 181.957031 211.015625 181.636719 L 211.015625 159.113281 C 211.019531 158.246094 211.089844 157.386719 211.230469 156.53125 C 211.371094 155.675781 211.578125 154.835938 211.855469 154.015625 C 212.132812 153.195312 212.472656 152.402344 212.878906 151.636719 C 213.285156 150.871094 213.746094 150.144531 214.269531 149.453125 C 214.792969 148.761719 215.367188 148.117188 215.996094 147.519531 C 216.625 146.925781 217.292969 146.382812 218.011719 145.894531 C 218.726562 145.40625 219.476562 144.976562 220.257812 144.609375 C 221.042969 144.242188 221.851562 143.941406 222.6875 143.707031 L 222.6875 143.601562 C 222.6875 142.605469 222.589844 141.621094 222.394531 140.648438 C 222.203125 139.671875 221.914062 138.726562 221.535156 137.808594 C 221.15625 136.890625 220.691406 136.015625 220.136719 135.191406 C 219.585938 134.363281 218.957031 133.597656 218.257812 132.894531 C 217.554688 132.191406 216.789062 131.5625 215.964844 131.011719 C 215.136719 130.457031 214.265625 129.992188 213.347656 129.609375 C 212.429688 129.226562 211.484375 128.941406 210.507812 128.746094 C 209.535156 128.550781 208.550781 128.453125 207.554688 128.449219 L 167.5 128.449219 C 166.503906 128.449219 165.515625 128.546875 164.539062 128.738281 C 163.5625 128.933594 162.617188 129.21875 161.695312 129.601562 C 160.777344 129.980469 159.902344 130.445312 159.074219 131 C 158.246094 131.550781 157.480469 132.179688 156.777344 132.882812 C 156.074219 133.585938 155.445312 134.351562 154.890625 135.179688 C 154.335938 136.007812 153.871094 136.878906 153.488281 137.800781 C 153.109375 138.71875 152.820312 139.667969 152.625 140.644531 C 152.433594 141.621094 152.335938 142.605469 152.335938 143.601562 L 152.335938 143.699219 C 153.167969 143.933594 153.980469 144.234375 154.765625 144.601562 C 155.550781 144.96875 156.300781 145.394531 157.019531 145.882812 C 157.734375 146.371094 158.40625 146.914062 159.035156 147.511719 C 159.664062 148.109375 160.238281 148.753906 160.761719 149.445312 C 161.285156 150.136719 161.75 150.863281 162.15625 151.628906 C 162.5625 152.398438 162.902344 153.191406 163.179688 154.011719 C 163.457031 154.832031 163.664062 155.671875 163.804688 156.527344 C 163.945312 157.382812 164.015625 158.246094 164.015625 159.113281 Z M 164.015625 159.113281 " fill-opacity="1" fill-rule="nonzero"/><g clip-path="url(#e81d4fed91)"><path fill="#ffde59" d="M 233.257812 148.894531 L 227.058594 148.894531 C 226.390625 148.894531 225.726562 148.957031 225.066406 149.089844 C 224.410156 149.21875 223.769531 149.414062 223.148438 149.671875 C 222.53125 149.929688 221.941406 150.242188 221.382812 150.617188 C 220.824219 150.988281 220.308594 151.410156 219.835938 151.886719 C 219.359375 152.359375 218.9375 152.875 218.5625 153.433594 C 218.191406 153.992188 217.875 154.582031 217.621094 155.199219 C 217.363281 155.820312 217.167969 156.460938 217.039062 157.117188 C 216.90625 157.777344 216.84375 158.441406 216.84375 159.113281 L 216.84375 181.636719 C 216.84375 182.339844 216.777344 183.035156 216.640625 183.726562 C 216.507812 184.414062 216.304688 185.085938 216.039062 185.734375 C 215.769531 186.382812 215.441406 187 215.050781 187.585938 C 214.660156 188.171875 214.21875 188.710938 213.722656 189.210938 C 213.222656 189.707031 212.683594 190.152344 212.097656 190.542969 C 211.515625 190.933594 210.898438 191.261719 210.25 191.53125 C 209.597656 191.800781 208.929688 192 208.238281 192.136719 C 207.550781 192.273438 206.855469 192.339844 206.152344 192.339844 L 168.917969 192.339844 C 168.214844 192.339844 167.519531 192.273438 166.832031 192.132812 C 166.140625 191.996094 165.472656 191.792969 164.824219 191.523438 C 164.175781 191.253906 163.5625 190.925781 162.976562 190.535156 C 162.394531 190.144531 161.855469 189.699219 161.359375 189.203125 C 160.863281 188.707031 160.421875 188.164062 160.03125 187.582031 C 159.644531 186.996094 159.316406 186.378906 159.046875 185.730469 C 158.78125 185.082031 158.578125 184.410156 158.445312 183.722656 C 158.308594 183.035156 158.242188 182.339844 158.246094 181.636719 L 158.246094 159.113281 C 158.246094 158.441406 158.179688 157.777344 158.050781 157.117188 C 157.917969 156.460938 157.722656 155.820312 157.46875 155.199219 C 157.210938 154.582031 156.894531 153.992188 156.523438 153.433594 C 156.148438 152.875 155.726562 152.359375 155.253906 151.886719 C 154.777344 151.410156 154.261719 150.988281 153.703125 150.617188 C 153.144531 150.242188 152.558594 149.929688 151.9375 149.671875 C 151.316406 149.414062 150.679688 149.21875 150.019531 149.089844 C 149.363281 148.957031 148.699219 148.894531 148.027344 148.894531 L 141.816406 148.894531 C 141.144531 148.894531 140.480469 148.957031 139.820312 149.089844 C 139.164062 149.21875 138.523438 149.414062 137.90625 149.671875 C 137.285156 149.929688 136.695312 150.242188 136.136719 150.617188 C 135.578125 150.988281 135.0625 151.410156 134.589844 151.886719 C 134.113281 152.359375 133.691406 152.875 133.320312 153.433594 C 132.945312 153.992188 132.632812 154.582031 132.375 155.199219 C 132.117188 155.820312 131.921875 156.460938 131.792969 157.117188 C 131.660156 157.777344 131.597656 158.441406 131.597656 159.113281 L 131.597656 191.34375 C 131.597656 192.753906 131.710938 194.152344 131.941406 195.542969 C 132.171875 196.9375 132.515625 198.300781 132.972656 199.632812 C 133.425781 200.96875 133.988281 202.257812 134.652344 203.5 C 135.320312 204.742188 136.085938 205.921875 136.949219 207.039062 C 137.808594 208.15625 138.753906 209.195312 139.789062 210.15625 C 140.820312 211.117188 141.925781 211.984375 143.101562 212.765625 C 144.277344 213.542969 145.507812 214.222656 146.792969 214.796875 C 148.082031 215.375 149.40625 215.839844 150.773438 216.199219 L 148.652344 222.546875 C 148.546875 222.859375 148.476562 223.175781 148.4375 223.5 C 148.394531 223.820312 148.386719 224.148438 148.410156 224.472656 C 148.433594 224.796875 148.488281 225.117188 148.574219 225.433594 C 148.660156 225.746094 148.773438 226.050781 148.917969 226.34375 C 149.066406 226.636719 149.238281 226.910156 149.4375 227.167969 C 149.636719 227.425781 149.859375 227.664062 150.101562 227.878906 C 150.347656 228.09375 150.613281 228.28125 150.894531 228.445312 C 151.179688 228.605469 151.472656 228.742188 151.785156 228.847656 C 152.09375 228.953125 152.414062 229.023438 152.738281 229.066406 C 153.066406 229.109375 153.390625 229.121094 153.71875 229.097656 C 154.046875 229.074219 154.371094 229.019531 154.6875 228.933594 C 155.003906 228.847656 155.308594 228.730469 155.601562 228.585938 C 155.898438 228.4375 156.175781 228.261719 156.433594 228.0625 C 156.691406 227.859375 156.929688 227.632812 157.144531 227.386719 C 157.359375 227.136719 157.546875 226.871094 157.710938 226.585938 C 157.871094 226.296875 158.003906 226 158.105469 225.6875 L 161.015625 217.03125 L 214.109375 217.03125 L 217.011719 225.6875 C 217.117188 225.996094 217.253906 226.292969 217.414062 226.574219 C 217.578125 226.859375 217.769531 227.121094 217.984375 227.367188 C 218.199219 227.613281 218.433594 227.835938 218.695312 228.035156 C 218.953125 228.234375 219.226562 228.40625 219.519531 228.550781 C 219.8125 228.695312 220.117188 228.808594 220.433594 228.894531 C 220.746094 228.980469 221.066406 229.035156 221.394531 229.058594 C 221.71875 229.082031 222.042969 229.070312 222.367188 229.03125 C 222.691406 228.988281 223.007812 228.917969 223.316406 228.8125 C 223.621094 228.707031 223.914062 228.570312 224.191406 228.40625 C 224.472656 228.242188 224.730469 228.054688 224.972656 227.839844 C 225.214844 227.625 225.433594 227.386719 225.628906 227.132812 C 225.828125 226.875 225.996094 226.601562 226.140625 226.308594 C 226.28125 226.019531 226.394531 225.71875 226.480469 225.40625 C 226.5625 225.09375 226.617188 224.777344 226.640625 224.457031 C 226.664062 224.132812 226.65625 223.8125 226.613281 223.492188 C 226.574219 223.167969 226.503906 222.855469 226.402344 222.546875 L 224.277344 216.230469 C 225.644531 215.875 226.972656 215.40625 228.261719 214.832031 C 229.550781 214.253906 230.785156 213.578125 231.960938 212.796875 C 233.140625 212.019531 234.246094 211.148438 235.28125 210.1875 C 236.316406 209.222656 237.265625 208.183594 238.125 207.066406 C 238.988281 205.945312 239.753906 204.765625 240.421875 203.519531 C 241.089844 202.277344 241.652344 200.984375 242.109375 199.648438 C 242.5625 198.3125 242.90625 196.945312 243.136719 195.550781 C 243.363281 194.15625 243.480469 192.753906 243.476562 191.34375 L 243.476562 159.113281 C 243.476562 158.441406 243.414062 157.777344 243.28125 157.117188 C 243.152344 156.460938 242.957031 155.820312 242.699219 155.199219 C 242.441406 154.582031 242.128906 153.992188 241.753906 153.433594 C 241.382812 152.875 240.960938 152.359375 240.484375 151.886719 C 240.011719 151.410156 239.496094 150.988281 238.9375 150.617188 C 238.378906 150.242188 237.789062 149.929688 237.171875 149.671875 C 236.550781 149.414062 235.910156 149.21875 235.253906 149.089844 C 234.59375 148.957031 233.929688 148.894531 233.257812 148.894531 Z M 233.257812 148.894531 " fill-opacity="1" fill-rule="nonzero"/></g><g fill="#ffde59" fill-opacity="1"><g transform="translate(45.52172, 272.723762)"><g><path d="M 0.796875 -14.390625 C 0.796875 -18.554688 2.210938 -22.078125 5.046875 -24.953125 C 7.890625 -27.835938 11.304688 -29.28125 15.296875 -29.28125 C 19.316406 -29.28125 22.734375 -27.84375 25.546875 -24.96875 C 28.359375 -22.101562 29.765625 -18.578125 29.765625 -14.390625 C 29.765625 -10.191406 28.378906 -6.65625 25.609375 -3.78125 C 22.847656 -0.914062 19.410156 0.515625 15.296875 0.515625 C 11.097656 0.515625 7.628906 -0.90625 4.890625 -3.75 C 2.160156 -6.59375 0.796875 -10.140625 0.796875 -14.390625 Z M 7.875 -14.390625 C 7.875 -12.878906 8.101562 -11.503906 8.5625 -10.265625 C 9.03125 -9.023438 9.847656 -7.972656 11.015625 -7.109375 C 12.179688 -6.253906 13.609375 -5.828125 15.296875 -5.828125 C 17.742188 -5.828125 19.585938 -6.660156 20.828125 -8.328125 C 22.066406 -10.003906 22.6875 -12.023438 22.6875 -14.390625 C 22.6875 -16.742188 22.050781 -18.757812 20.78125 -20.4375 C 19.519531 -22.125 17.691406 -22.96875 15.296875 -22.96875 C 12.929688 -22.96875 11.101562 -22.125 9.8125 -20.4375 C 8.519531 -18.757812 7.875 -16.742188 7.875 -14.390625 Z M 7.875 -14.390625 "/></g></g></g><g fill="#ffde59" fill-opacity="1"><g transform="translate(76.098468, 272.723762)"><g><path d="M 2.09375 0 L 2.09375 -17.890625 L 8.265625 -17.890625 L 8.265625 -15.296875 L 8.328125 -15.296875 C 8.378906 -15.390625 8.457031 -15.503906 8.5625 -15.640625 C 8.664062 -15.785156 8.890625 -16.03125 9.234375 -16.375 C 9.585938 -16.726562 9.960938 -17.046875 10.359375 -17.328125 C 10.753906 -17.609375 11.265625 -17.859375 11.890625 -18.078125 C 12.515625 -18.296875 13.148438 -18.40625 13.796875 -18.40625 C 14.472656 -18.40625 15.132812 -18.3125 15.78125 -18.125 C 16.4375 -17.9375 16.914062 -17.75 17.21875 -17.5625 L 17.703125 -17.296875 L 15.125 -12.0625 C 14.363281 -12.707031 13.296875 -13.03125 11.921875 -13.03125 C 11.179688 -13.03125 10.539062 -12.867188 10 -12.546875 C 9.46875 -12.222656 9.09375 -11.828125 8.875 -11.359375 C 8.65625 -10.898438 8.5 -10.503906 8.40625 -10.171875 C 8.3125 -9.847656 8.265625 -9.59375 8.265625 -9.40625 L 8.265625 0 Z M 2.09375 0 "/></g></g></g><g fill="#ffde59" fill-opacity="1"><g transform="translate(93.461319, 272.723762)"><g><path d="M 20.484375 -15.640625 C 22.160156 -13.804688 23 -11.566406 23 -8.921875 C 23 -6.273438 22.160156 -4.039062 20.484375 -2.21875 C 18.816406 -0.394531 16.695312 0.515625 14.125 0.515625 C 11.75 0.515625 9.796875 -0.328125 8.265625 -2.015625 L 8.1875 -2.015625 L 8.1875 0 L 2.09375 0 L 2.09375 -29.984375 L 8.265625 -29.984375 L 8.265625 -16.171875 C 9.796875 -17.660156 11.75 -18.40625 14.125 -18.40625 C 16.695312 -18.40625 18.816406 -17.484375 20.484375 -15.640625 Z M 15.296875 -5.90625 C 16.066406 -6.6875 16.453125 -7.691406 16.453125 -8.921875 C 16.453125 -10.148438 16.050781 -11.160156 15.25 -11.953125 C 14.445312 -12.742188 13.453125 -13.140625 12.265625 -13.140625 C 11.109375 -13.140625 10.128906 -12.742188 9.328125 -11.953125 C 8.523438 -11.160156 8.125 -10.148438 8.125 -8.921875 C 8.125 -7.710938 8.507812 -6.710938 9.28125 -5.921875 C 10.0625 -5.128906 11.054688 -4.734375 12.265625 -4.734375 C 13.523438 -4.734375 14.535156 -5.125 15.296875 -5.90625 Z M 15.296875 -5.90625 "/></g></g></g><g fill="#ffde59" fill-opacity="1"><g transform="translate(117.274226, 272.723762)"><g><path d="M 2.6875 -27.84375 C 3.40625 -28.570312 4.265625 -28.9375 5.265625 -28.9375 C 6.265625 -28.9375 7.125 -28.570312 7.84375 -27.84375 C 8.5625 -27.125 8.921875 -26.265625 8.921875 -25.265625 C 8.921875 -24.273438 8.5625 -23.414062 7.84375 -22.6875 C 7.125 -21.96875 6.265625 -21.609375 5.265625 -21.609375 C 4.265625 -21.609375 3.40625 -21.96875 2.6875 -22.6875 C 1.96875 -23.414062 1.609375 -24.273438 1.609375 -25.265625 C 1.609375 -26.265625 1.96875 -27.125 2.6875 -27.84375 Z M 2.09375 -17.890625 L 2.09375 0 L 8.265625 0 L 8.265625 -17.890625 Z M 2.09375 -17.890625 "/></g></g></g><g fill="#ffde59" fill-opacity="1"><g transform="translate(127.803502, 272.723762)"><g><path d="M 3.140625 -17.890625 L 3.140625 -24.546875 L 9.3125 -24.546875 L 9.3125 -17.890625 L 13.078125 -17.890625 L 13.078125 -13.171875 L 9.3125 -13.171875 L 9.3125 -7.5 C 9.3125 -5.84375 9.773438 -5.015625 10.703125 -5.015625 C 10.929688 -5.015625 11.171875 -5.0625 11.421875 -5.15625 C 11.679688 -5.25 11.882812 -5.34375 12.03125 -5.4375 L 12.234375 -5.578125 L 13.765625 -0.59375 C 12.441406 0.144531 10.929688 0.515625 9.234375 0.515625 C 8.078125 0.515625 7.078125 0.3125 6.234375 -0.09375 C 5.398438 -0.5 4.765625 -1.039062 4.328125 -1.71875 C 3.898438 -2.40625 3.59375 -3.125 3.40625 -3.875 C 3.226562 -4.632812 3.140625 -5.445312 3.140625 -6.3125 L 3.140625 -13.171875 L 0.5625 -13.171875 L 0.5625 -17.890625 Z M 3.140625 -17.890625 "/></g></g></g><g fill="#ffde59" fill-opacity="1"><g transform="translate(141.575242, 272.723762)"><g><path d="M 2.09375 -28.765625 L 12.375 -28.765625 C 15.132812 -28.765625 17.382812 -28.023438 19.125 -26.546875 C 20.875 -25.066406 21.75 -22.957031 21.75 -20.21875 C 21.75 -18.101562 21.21875 -16.332031 20.15625 -14.90625 C 19.101562 -13.476562 17.671875 -12.472656 15.859375 -11.890625 L 25.765625 0 L 17.4375 0 L 8.640625 -11.359375 L 8.640625 0 L 2.09375 0 Z M 8.640625 -16 L 9.40625 -16 C 10.007812 -16 10.519531 -16.007812 10.9375 -16.03125 C 11.363281 -16.050781 11.84375 -16.128906 12.375 -16.265625 C 12.90625 -16.410156 13.332031 -16.609375 13.65625 -16.859375 C 13.988281 -17.117188 14.269531 -17.492188 14.5 -17.984375 C 14.726562 -18.472656 14.84375 -19.066406 14.84375 -19.765625 C 14.84375 -20.460938 14.726562 -21.054688 14.5 -21.546875 C 14.269531 -22.035156 13.988281 -22.40625 13.65625 -22.65625 C 13.332031 -22.914062 12.90625 -23.113281 12.375 -23.25 C 11.84375 -23.382812 11.363281 -23.460938 10.9375 -23.484375 C 10.519531 -23.515625 10.007812 -23.53125 9.40625 -23.53125 L 8.640625 -23.53125 Z M 8.640625 -16 "/></g></g></g><g fill="#ffde59" fill-opacity="1"><g transform="translate(166.538693, 272.723762)"><g><path d="M 20.1875 -8.09375 L 7.21875 -8.09375 C 7.21875 -6.832031 7.625 -5.898438 8.4375 -5.296875 C 9.25 -4.691406 10.128906 -4.390625 11.078125 -4.390625 C 12.078125 -4.390625 12.867188 -4.519531 13.453125 -4.78125 C 14.035156 -5.050781 14.695312 -5.582031 15.4375 -6.375 L 19.90625 -4.140625 C 18.039062 -1.035156 14.945312 0.515625 10.625 0.515625 C 7.9375 0.515625 5.625 -0.40625 3.6875 -2.25 C 1.757812 -4.09375 0.796875 -6.316406 0.796875 -8.921875 C 0.796875 -11.523438 1.757812 -13.753906 3.6875 -15.609375 C 5.625 -17.472656 7.9375 -18.40625 10.625 -18.40625 C 13.46875 -18.40625 15.773438 -17.582031 17.546875 -15.9375 C 19.328125 -14.300781 20.21875 -11.960938 20.21875 -8.921875 C 20.21875 -8.503906 20.207031 -8.226562 20.1875 -8.09375 Z M 7.390625 -11.5 L 14.1875 -11.5 C 14.050781 -12.425781 13.6875 -13.140625 13.09375 -13.640625 C 12.5 -14.140625 11.738281 -14.390625 10.8125 -14.390625 C 9.78125 -14.390625 8.960938 -14.125 8.359375 -13.59375 C 7.753906 -13.0625 7.429688 -12.363281 7.390625 -11.5 Z M 7.390625 -11.5 "/></g></g></g><g fill="#ffde59" fill-opacity="1"><g transform="translate(187.562387, 272.723762)"><g><path d="M 22.796875 0 L 15.34375 0 L 11.40625 -5.046875 L 7.453125 0 L 0 0 L 7.640625 -9.34375 L 1.078125 -17.890625 L 8.296875 -17.890625 L 11.40625 -13.734375 L 14.5 -17.890625 L 21.71875 -17.890625 L 15.15625 -9.34375 Z M 22.796875 0 "/></g></g></g><g fill="#ffde59" fill-opacity="1"><g transform="translate(210.364199, 272.723762)"><g/></g></g><g fill="#ffde59" fill-opacity="1"><g transform="translate(219.882381, 272.723762)"><g><path d="M 8.640625 -28.765625 L 8.640625 -5.75 L 18.546875 -5.75 L 18.546875 0 L 2.09375 0 L 2.09375 -28.765625 Z M 8.640625 -28.765625 "/></g></g></g><g fill="#ffde59" fill-opacity="1"><g transform="translate(239.581194, 272.723762)"><g><path d="M 2.6875 -27.84375 C 3.40625 -28.570312 4.265625 -28.9375 5.265625 -28.9375 C 6.265625 -28.9375 7.125 -28.570312 7.84375 -27.84375 C 8.5625 -27.125 8.921875 -26.265625 8.921875 -25.265625 C 8.921875 -24.273438 8.5625 -23.414062 7.84375 -22.6875 C 7.125 -21.96875 6.265625 -21.609375 5.265625 -21.609375 C 4.265625 -21.609375 3.40625 -21.96875 2.6875 -22.6875 C 1.96875 -23.414062 1.609375 -24.273438 1.609375 -25.265625 C 1.609375 -26.265625 1.96875 -27.125 2.6875 -27.84375 Z M 2.09375 -17.890625 L 2.09375 0 L 8.265625 0 L 8.265625 -17.890625 Z M 2.09375 -17.890625 "/></g></g></g><g fill="#ffde59" fill-opacity="1"><g transform="translate(250.11047, 272.723762)"><g><path d="M 6.625 -17.890625 L 10.984375 -8.15625 L 15.34375 -17.890625 L 22.65625 -17.890625 L 13.078125 0 L 8.890625 0 L -0.703125 -17.890625 Z M 6.625 -17.890625 "/></g></g></g><g fill="#ffde59" fill-opacity="1"><g transform="translate(272.075512, 272.723762)"><g><path d="M 2.6875 -27.84375 C 3.40625 -28.570312 4.265625 -28.9375 5.265625 -28.9375 C 6.265625 -28.9375 7.125 -28.570312 7.84375 -27.84375 C 8.5625 -27.125 8.921875 -26.265625 8.921875 -25.265625 C 8.921875 -24.273438 8.5625 -23.414062 7.84375 -22.6875 C 7.125 -21.96875 6.265625 -21.609375 5.265625 -21.609375 C 4.265625 -21.609375 3.40625 -21.96875 2.6875 -22.6875 C 1.96875 -23.414062 1.609375 -24.273438 1.609375 -25.265625 C 1.609375 -26.265625 1.96875 -27.125 2.6875 -27.84375 Z M 2.09375 -17.890625 L 2.09375 0 L 8.265625 0 L 8.265625 -17.890625 Z M 2.09375 -17.890625 "/></g></g></g><g fill="#ffde59" fill-opacity="1"><g transform="translate(282.604788, 272.723762)"><g><path d="M 2.09375 0 L 2.09375 -17.890625 L 8.265625 -17.890625 L 8.265625 -16 L 8.328125 -16 C 9.929688 -17.601562 11.640625 -18.40625 13.453125 -18.40625 C 14.335938 -18.40625 15.210938 -18.285156 16.078125 -18.046875 C 16.953125 -17.816406 17.789062 -17.457031 18.59375 -16.96875 C 19.394531 -16.488281 20.046875 -15.800781 20.546875 -14.90625 C 21.046875 -14.007812 21.296875 -12.96875 21.296875 -11.78125 L 21.296875 0 L 15.125 0 L 15.125 -10.109375 C 15.125 -11.035156 14.828125 -11.847656 14.234375 -12.546875 C 13.640625 -13.242188 12.867188 -13.59375 11.921875 -13.59375 C 10.992188 -13.59375 10.148438 -13.234375 9.390625 -12.515625 C 8.640625 -11.796875 8.265625 -10.992188 8.265625 -10.109375 L 8.265625 0 Z M 2.09375 0 "/></g></g></g><g fill="#ffde59" fill-opacity="1"><g transform="translate(305.650656, 272.723762)"><g><path d="M 1.296875 4.390625 L 6.34375 1.921875 C 7.269531 3.453125 8.882812 4.21875 11.1875 4.21875 C 12.257812 4.21875 13.253906 3.875 14.171875 3.1875 C 15.085938 2.5 15.546875 1.445312 15.546875 0.03125 L 15.546875 -1.296875 C 14.453125 -0.0859375 12.5 0.515625 9.6875 0.515625 C 7.113281 0.515625 4.988281 -0.394531 3.3125 -2.21875 C 1.632812 -4.039062 0.796875 -6.273438 0.796875 -8.921875 C 0.796875 -11.566406 1.632812 -13.804688 3.3125 -15.640625 C 4.988281 -17.484375 7.113281 -18.40625 9.6875 -18.40625 C 11.988281 -18.40625 13.90625 -17.695312 15.4375 -16.28125 L 15.546875 -16.28125 L 15.546875 -17.890625 L 21.71875 -17.890625 L 21.71875 0.484375 C 21.71875 3.390625 20.753906 5.632812 18.828125 7.21875 C 16.898438 8.800781 14.351562 9.59375 11.1875 9.59375 C 6.070312 9.59375 2.773438 7.859375 1.296875 4.390625 Z M 8.5625 -11.953125 C 7.757812 -11.160156 7.359375 -10.148438 7.359375 -8.921875 C 7.359375 -7.691406 7.738281 -6.6875 8.5 -5.90625 C 9.269531 -5.125 10.28125 -4.734375 11.53125 -4.734375 C 12.738281 -4.734375 13.734375 -5.128906 14.515625 -5.921875 C 15.296875 -6.710938 15.6875 -7.710938 15.6875 -8.921875 C 15.6875 -10.148438 15.285156 -11.160156 14.484375 -11.953125 C 13.679688 -12.742188 12.695312 -13.140625 11.53125 -13.140625 C 10.351562 -13.140625 9.363281 -12.742188 8.5625 -11.953125 Z M 8.5625 -11.953125 "/></g></g></g></svg>